<svg version="1" xmlns="http://www.w3.org/2000/svg" width="810.667" height="810.667" viewBox="0 0 608.000000 608.000000"><path d="M295.2 1.7c-5.1 1.8 3.2-6.3-142.7 138.8C80.6 212 47.3 245.7 46 248.5c-3.7 7.7-2.1 15.5 4.8 22.2 2.3 2.4 4.6 4.3 5 4.4.4 0 1.6.3 2.7.6s13.6.6 27.7.7c16.4.1 25.8.5 25.9 1.1 0 .5.2 49.4.2 108.5l.2 107.5 2.3 4.5c1.3 2.5 3.1 5.3 4 6.4 2.8 3.1 9.5 6.4 14.2 7.1 4.8.6 4.8.7 9.5.5 1.7 0 5.6.1 8.8.2 3.1.2 5.7.1 5.7-.2 0-.3 2.5-.5 5.5-.5s5.5.2 5.5.5 2.8.4 6.2.2c3.5-.1 8.9-.3 12.1-.5 3.1-.1 5.7 0 5.7.3s2.8.4 6.2.2c3.5-.1 8.9-.3 12.1-.5 3.1-.1 5.7 0 5.7.3s2.8.4 6.2.2c3.5-.1 8.9-.3 12.1-.5 3.1-.1 5.7 0 5.7.3s2.8.4 6.2.2c3.5-.1 8.9-.3 12.1-.5 3.1-.1 5.7 0 5.7.3s2.8.4 6.2.2c3.5-.1 8.9-.3 12.1-.5 3.1-.1 5.7 0 5.7.3s2.8.4 6.2.2c3.5-.1 8.9-.3 12.1-.5 3.1-.1 5.7 0 5.7.3s2.8.4 6.2.2c3.5-.1 8.9-.3 12.1-.5 3.1-.1 5.7 0 5.7.3s2.8.4 6.2.2c3.5-.1 8.9-.3 12.1-.5 3.1-.1 5.7 0 5.7.3s2.8.4 6.2.2c3.5-.1 8.9-.3 12.1-.5 3.1-.1 5.7 0 5.7.3s2.8.4 6.2.2c3.5-.1 8.9-.3 12.1-.5 3.1-.1 5.7 0 5.7.3s2.8.4 6.2.2c3.5-.1 8.9-.3 12.1-.5 3.1-.1 5.7 0 5.7.3s2.8.4 6.2.2c3.5-.1 8.9-.3 12.1-.5 3.1-.1 5.7 0 5.7.3s2.3.5 5 .5c2.8 0 5-.2 5-.5s2.3-.4 5.1-.3c9.3.2 17.9-5 22.1-13.6l2.3-4.6.1-107.7c0-59.3.3-108 .7-108.4.3-.4 12.2-.7 26.4-.8 24.5-.1 26-.3 30-2.3 6.7-3.6 11.3-11 11.3-18.2-.1-8.6 14 5.9-222.8-229.2C328.7 14.5 316.9 3.6 315 2.6c-4.7-2.4-14.4-2.8-19.8-.9zM147.9 527.4c-.2.2-3.9.6-8.2 1-14.2 1-21.9 7.4-23.5 19.3-.4 3.2-.5 7.1-.2 8.7.3 1.6.3 9.6 0 17.8-.3 8.2-.3 15.2 0 15.5.3.2.6.9.6 1.4.1.5.3 1.1.4 1.4.3.6.7 2.1.9 3.3.2 1.7 6.6 7.4 10.5 9.5l4.1 2.2 174.1.3c173.7.2 174.1.2 179-1.9 7.9-3.3 12.7-8.5 13.8-14.9 1.1-7.4.6-43.7-.7-48.9-2.1-8-15.2-15.1-26.2-14.1-1.1 0-2.7.1-3.5.1-.8-.1-3.1-.1-5 0s-4.1.1-4.7 0c-1.5-.1-3.8-.1-5.5 0-.7 0-3-.1-5-.3-2.1-.3-3.8-.1-3.8.3s-1.3.4-3-.1c-1.6-.5-3.2-.5-3.5 0-.3.5-1.9.5-3.5 0-1.7-.5-4.3-.5-6 0-1.6.5-3.2.5-3.5 0-.3-.5-1.9-.5-3.5 0-1.7.5-3.2.5-3.5 0-.3-.5-1.6-.6-2.8-.1-1.2.4-3.3.5-4.7.1-1.4-.4-3.7-.3-5.2.1s-3 .4-3.3-.1c-.3-.5-1.6-.5-3.1 0-1.4.6-2.3.7-2.1.2.6-.8-6-.8-6.9.1-.3.3-1.9.1-3.5-.3-1.6-.5-4.2-.5-5.9 0-1.6.5-3.2.5-3.5 0-.3-.5-1.9-.5-3.5 0s-3.2.5-3.5 0c-.3-.4-2-.4-3.9 0s-4 .4-4.7-.1c-.7-.4-2-.4-3 .1-.9.5-1.9.7-2.1.4-.9-.8-7.8-1.1-7.8-.3 0 .4-1.3.4-3-.1-1.6-.5-3.2-.5-3.5 0-.3.5-1.9.5-3.5 0-1.7-.5-4.3-.5-6 0-1.6.5-3.2.5-3.5 0-.3-.5-1.9-.5-3.5 0-1.7.5-3.2.5-3.5 0-.3-.5-1.6-.6-2.8-.1-1.2.4-3.3.5-4.7.1-1.4-.4-3.7-.3-5.2.1s-3 .4-3.3-.1c-.3-.5-1.6-.5-3.1 0-1.4.6-2.3.7-2.1.2.6-.8-6-.8-6.9.1-.3.3-1.9.1-3.5-.3-1.6-.5-4.2-.5-5.9 0-1.6.5-3.2.5-3.5 0-.3-.5-1.9-.5-3.5 0s-3.2.5-3.5 0c-.3-.4-2-.4-3.9 0s-4 .4-4.7-.1c-.7-.4-2-.4-3 .1-.9.5-1.9.7-2.1.4-.9-.8-7.8-1.1-7.8-.3 0 .4-1.3.4-3-.1-1.6-.5-3.2-.5-3.5 0-.3.5-1.9.5-3.5 0-1.7-.5-4.3-.5-6 0-1.6.5-3.2.5-3.5 0-.3-.5-1.9-.5-3.5 0-1.7.5-3.2.5-3.5 0-.3-.5-1.6-.6-2.8-.1-1.2.4-3.3.5-4.7.1-1.4-.4-3.7-.3-5.2.1s-3 .4-3.3-.1c-.3-.5-1.6-.5-3.1 0-1.4.6-2.3.7-2.1.2.6-.8-6-.8-6.9.1-.3.3-1.9.1-3.5-.3-1.6-.5-4.2-.5-5.9 0-1.6.5-3.2.5-3.5 0-.3-.5-1.9-.5-3.5 0s-3.2.5-3.5 0c-.3-.4-2-.4-3.9 0-1.8.4-4 .4-4.8-.1-.7-.4-2-.4-2.8.1-.7.4-2.4.4-3.6 0-1.4-.6-2.6-.5-2.9 0-.3.5-1.5.6-2.8.1-1.2-.5-3.1-.5-4.2-.1s-2.7.4-3.6-.1c-.9-.5-1.8-.7-2-.5z"/></svg>