<svg id="Layer_1" data-name="Layer 1" xmlns="http://www.w3.org/2000/svg" viewBox="0 0 432 270.3"><defs><style>.cls-1{fill:#005789;}.cls-2{fill:#2cb3a1;}.cls-3{fill:#fff;}</style></defs><title>TCR-Logo-4C</title><path class="cls-1" d="M238.65,143.42h-6.77a.74.74,0,0,1-.74-.74v-1.13a.74.74,0,0,1,.74-.74h16.51a.74.74,0,0,1,.74.74v1.13a.74.74,0,0,1-.74.74h-6.78v23.9a.77.77,0,0,1-.74.74h-1.48a.77.77,0,0,1-.74-.74Z"/><path class="cls-1" d="M264.93,140.42a14,14,0,1,1-14,14.05A14,14,0,0,1,264.93,140.42Zm0,25.3a11.29,11.29,0,1,0-11.25-11.25A11.31,11.31,0,0,0,264.93,165.72Z"/><path class="cls-1" d="M284.28,141.55a.74.74,0,0,1,.74-.74h10.09a8.36,8.36,0,0,1,8.48,8.29,8.68,8.68,0,0,1-5.76,7.94l5.33,9.89a.73.73,0,0,1-.66,1.13h-2a.69.69,0,0,1-.63-.35l-5.17-10.32h-7.44v9.93a.77.77,0,0,1-.74.74H285a.74.74,0,0,1-.74-.74Zm10.63,13.27a5.59,5.59,0,1,0,0-11.17h-7.55v11.17Z"/><path class="cls-1" d="M321.81,140.42a14,14,0,1,1-14,14.05A14,14,0,0,1,321.81,140.42Zm0,25.3a11.29,11.29,0,1,0-11.25-11.25A11.31,11.31,0,0,0,321.81,165.72Z"/><path class="cls-1" d="M341.75,141.12a.72.72,0,0,1,.74-.7h1L361,162.3h.07V141.55a.74.74,0,0,1,.74-.74h1.37a.76.76,0,0,1,.73.74v26.2a.73.73,0,0,1-.73.7h-.71l-17.86-22.31h0v21.18a.74.74,0,0,1-.74.74h-1.36a.76.76,0,0,1-.74-.74Z"/><path class="cls-1" d="M376.71,143.42h-6.78a.74.74,0,0,1-.74-.74v-1.13a.74.74,0,0,1,.74-.74h16.51a.74.74,0,0,1,.74.74v1.13a.74.74,0,0,1-.74.74h-6.77v23.9a.77.77,0,0,1-.74.74h-1.48a.77.77,0,0,1-.74-.74Z"/><path class="cls-1" d="M402.09,140.42a14,14,0,1,1-14,14.05A14,14,0,0,1,402.09,140.42Zm0,25.3a11.29,11.29,0,1,0-11.25-11.25A11.31,11.31,0,0,0,402.09,165.72Z"/><path class="cls-1" d="M248.32,179a18.47,18.47,0,0,1,13.19,5.07,1,1,0,0,1,.05,1.53L258.24,189a.87.87,0,0,1-1.36,0,12.93,12.93,0,0,0-8.4-3.21c-7,0-12.15,5.83-12.15,12.69a12.34,12.34,0,0,0,12.21,12.59,13.1,13.1,0,0,0,8.34-3.1,1,1,0,0,1,1.36,0l3.38,3.48a1,1,0,0,1-.06,1.48,18.71,18.71,0,0,1-13.24,5.28,19.62,19.62,0,1,1,0-39.24Z"/><path class="cls-1" d="M264.35,216.26l16.95-36.68a1,1,0,0,1,.92-.6h.55a1,1,0,0,1,.93.6l16.78,36.68a1,1,0,0,1-.93,1.42h-4.74a1.57,1.57,0,0,1-1.58-1.09l-2.67-5.89H274.27l-2.67,5.89a1.65,1.65,0,0,1-1.58,1.09h-4.74A1,1,0,0,1,264.35,216.26Zm23.54-11.61-5.45-12h-.16l-5.34,12Z"/><path class="cls-1" d="M306.65,186.07h-8.34a1,1,0,0,1-1-1v-4.46a1,1,0,0,1,1-1h23.81a1,1,0,0,1,1,1V185a1,1,0,0,1-1,1h-8.34v30.57a1.07,1.07,0,0,1-1,1h-5.07a1.07,1.07,0,0,1-1-1Z"/><path class="cls-1" d="M235.79,231.2a1,1,0,0,1,1-1h15.59a11.8,11.8,0,0,1,11.88,11.71c0,5-3.33,9.1-8.07,11l7.47,13.84a1,1,0,0,1-.93,1.58H257a.93.93,0,0,1-.87-.49l-7.25-14.44h-6v13.9a1.07,1.07,0,0,1-1,1h-5a1,1,0,0,1-1-1Zm16,16.35A5.55,5.55,0,0,0,257.2,242a5.41,5.41,0,0,0-5.39-5.28h-8.88v10.84Z"/><path class="cls-1" d="M271.71,231.2a1,1,0,0,1,1-1h22.18a1,1,0,0,1,1,1v4.47a1,1,0,0,1-1,1H278.79v8.93h13.46a1.08,1.08,0,0,1,1,1v4.52a1,1,0,0,1-1,1H278.79v9.53h16.13a1,1,0,0,1,1,1v4.47a1,1,0,0,1-1,1H272.74a1,1,0,0,1-1-1Z"/><path class="cls-1" d="M302.23,263l2-3.38a1.27,1.27,0,0,1,1.86-.38c.27.17,4.68,3.38,8.23,3.38,2.83,0,5-1.85,5-4.19,0-2.78-2.34-4.69-6.92-6.54-5.12-2.07-10.24-5.34-10.24-11.78,0-4.85,3.59-10.46,12.26-10.46a19.24,19.24,0,0,1,10.9,3.65,1.36,1.36,0,0,1,.33,1.8l-2.07,3.11a1.44,1.44,0,0,1-1.91.65c-.44-.27-4.58-3-7.58-3s-4.79,2.08-4.79,3.82c0,2.56,2,4.3,6.43,6.1C320.92,247.88,327,251,327,258.07c0,5.61-4.85,10.79-12.54,10.79a17.54,17.54,0,0,1-12-4.25C302,264.12,301.74,263.84,302.23,263Z"/><path class="cls-1" d="M351.61,229.62a18.48,18.48,0,0,1,13.19,5.07,1,1,0,0,1,.05,1.53l-3.32,3.43a.89.89,0,0,1-1.37,0,12.88,12.88,0,0,0-8.39-3.22c-7,0-12.15,5.83-12.15,12.7a12.34,12.34,0,0,0,12.21,12.59,13,13,0,0,0,8.33-3.11,1,1,0,0,1,1.37,0l3.37,3.49a1,1,0,0,1,0,1.47,18.7,18.7,0,0,1-13.24,5.29,19.62,19.62,0,1,1,0-39.24Z"/><path class="cls-1" d="M370.52,231.2a1.07,1.07,0,0,1,1-1h5.18a1,1,0,0,1,1,1v22.29c0,4.63,3.16,8.28,7.9,8.28a7.86,7.86,0,0,0,8-8.22V231.2a1,1,0,0,1,1-1h5.17a1.07,1.07,0,0,1,1,1v22.67a15.18,15.18,0,0,1-30.36,0Z"/><path class="cls-1" d="M407.75,231.2a1,1,0,0,1,1-1H431a1,1,0,0,1,1,1v4.47a1,1,0,0,1-1,1H414.83v8.93h13.46a1.07,1.07,0,0,1,1,1v4.52a1,1,0,0,1-1,1H414.83v9.53H431a1,1,0,0,1,1,1v4.47a1,1,0,0,1-1,1H408.79a1,1,0,0,1-1-1Z"/><path class="cls-1" d="M227.93,108.15l-105-105a10.84,10.84,0,0,0-15.28,0l-105,105a12.84,12.84,0,0,0-.86,1c-4.55,5.79.09,14.32,7.46,14.32h21v94.12a10.84,10.84,0,0,0,10.8,10.81H189.54a10.83,10.83,0,0,0,10.8-10.81V123.43h21c7.36,0,12-8.53,7.45-14.32A10.82,10.82,0,0,0,227.93,108.15Z"/><path class="cls-2" d="M190.18,270.3H41.69c-5.94,0-10.81-3.82-10.81-8.48V245.43c0-4.66,4.87-8.48,10.81-8.48H190.18c5.94,0,10.8,3.82,10.8,8.48v16.39c0,4.66-4.86,8.48-10.8,8.48"/><path class="cls-3" d="M77.7,228.36H54.28C42.62,224.42,37,210.57,41.53,199a26.86,26.86,0,0,1,1.61-3.38c3.11-5.53,8-10,13.06-13.74,1-.72,3.12-1.28,3.84-.3s-.27,2.35-1.24,3.07c-9,6.57-16.69,16.3-13.72,28.11a15.8,15.8,0,0,0,15.64,11.84c5.4,0,9.43-1.13,12.66-3.55a33.68,33.68,0,0,0,3-2.46c2.5-2.69,3.22-3.84,3.9-7.42a58.94,58.94,0,0,0,.65-6.1,52.81,52.81,0,0,1,.72-6.45A83.73,83.73,0,0,1,86,185c.68-1.72,1.32-3.24,2-4.66a66.08,66.08,0,0,1,7.31-13c5.45-7.35,13.21-10.88,19.36-13.13,2.3-.85,7.32-2.85,8-3.2,4.23-6.35,8.18-12.12,8.15-12.84,3-9.7,2-22.3,5.18-32,.7-2.17,2.55-8.49,4.11-6.82,2.14,2.27,1.1,9.55,7,8.92,1.84-.2,2.93-.72,3.56-.74a11.82,11.82,0,0,1,6.14,1.49c.39.22,3.05,2.53,3.47,2.63,2.2.54,7.82-.67,8.34,2.28.36,2,.18.46,0,2.5-.12,1.55-.1,4.07-1.2,5.33-2,2.35-5.11,2.39-7.73,4-4,2.38-5.83,10-6.54,14.48a73.51,73.51,0,0,0-.77,9.32,34.69,34.69,0,0,1,2.57,20.14,22.24,22.24,0,0,0,2.33,1.72c-.3-.63,16.36-9.7,18.59-10.71a17.75,17.75,0,0,1,9.29-2.14c3.82.24,4.73,4.26,3.22,5l-.65.32c-1.35.68-4.06.3-5.67.39-3.4.19-3.23-.13-6.62,1s-13.68,14.4-15.54,15.2a28.22,28.22,0,0,1-10.28,2.27,68.93,68.93,0,0,1-9.4,9.16s-3.66,22.47.61,31.71c.15.33,4.14,1.77,4.34,1.77,2.63,0,3.54.37,4.23,1.72a2.46,2.46,0,0,1,.14,1.28H134.27a10.73,10.73,0,0,1-1.31-1.9c-2.68-5.34-2.5-14-4.19-19.8a84.44,84.44,0,0,1-17.31,16.1.92.92,0,0,0,.49,1.67c2.41.08,6.7-.83,7.51-.8,2,.08,2.79.56,3.7,2.1a3.53,3.53,0,0,1,.32,2.63H77.7Z"/></svg>